<?xml version="1.0" standalone="no"?>
<!DOCTYPE svg PUBLIC "-//W3C//DTD SVG 20010904//EN"
 "http://www.w3.org/TR/2001/REC-SVG-20010904/DTD/svg10.dtd">
<svg version="1.0" xmlns="http://www.w3.org/2000/svg"
 width="879.000000pt" height="879.000000pt" viewBox="0 0 879.000000 879.000000"
 preserveAspectRatio="xMidYMid meet">
<metadata>
Created by potrace 1.10, written by Peter Selinger 2001-2011
</metadata>
<g transform="translate(0.000000,879.000000) scale(0.100000,-0.100000)"
fill="#8c3838" stroke="none">
<path d="M4120 8776 c0 -14 -96 -26 -214 -26 -34 0 -86 -7 -116 -15 -30 -8
-75 -15 -100 -15 -25 0 -67 -7 -94 -15 -27 -8 -61 -15 -76 -15 -15 0 -50 -6
-76 -14 -27 -8 -69 -19 -94 -24 -25 -6 -72 -18 -105 -27 -33 -9 -77 -20 -98
-24 -21 -5 -44 -14 -50 -20 -6 -6 -21 -11 -33 -11 -11 0 -52 -12 -90 -26 -38
-14 -84 -29 -102 -34 -18 -4 -38 -12 -45 -18 -7 -5 -40 -19 -75 -31 -34 -12
-70 -25 -80 -30 -9 -5 -48 -24 -87 -41 -172 -78 -380 -187 -500 -264 -77 -50
-171 -111 -180 -118 -5 -4 -73 -54 -150 -111 -191 -141 -280 -218 -470 -405
-81 -80 -113 -115 -241 -257 -27 -30 -210 -271 -282 -370 -26 -36 -109 -163
-115 -175 -4 -8 -16 -28 -26 -45 -62 -96 -174 -310 -236 -450 -15 -33 -35 -77
-46 -98 -10 -21 -19 -44 -19 -51 0 -8 -8 -29 -17 -48 -9 -18 -22 -45 -30 -60
-7 -14 -13 -38 -13 -51 0 -14 -4 -28 -9 -31 -5 -3 -19 -38 -31 -78 -12 -40
-27 -84 -33 -98 -5 -14 -13 -41 -18 -60 -4 -19 -15 -62 -24 -95 -9 -33 -21
-80 -27 -105 -5 -25 -16 -67 -24 -94 -8 -26 -14 -60 -14 -75 0 -14 -7 -51 -15
-81 -8 -30 -15 -74 -15 -97 0 -23 -5 -54 -11 -70 -19 -48 -34 -327 -34 -623 0
-353 15 -543 57 -760 5 -30 13 -77 17 -105 4 -27 12 -66 18 -85 11 -33 20 -71
44 -180 5 -24 14 -49 19 -54 6 -6 10 -22 10 -38 0 -15 6 -42 14 -60 8 -18 24
-67 36 -108 13 -41 27 -79 31 -84 5 -6 9 -19 9 -29 0 -10 6 -31 14 -45 8 -15
22 -47 31 -72 10 -25 26 -63 36 -85 58 -132 73 -166 102 -225 44 -91 167 -316
197 -360 10 -14 44 -65 76 -115 53 -83 244 -343 276 -376 7 -8 48 -54 90 -104
74 -88 237 -257 330 -342 48 -44 233 -199 285 -239 95 -73 194 -144 200 -144
5 0 19 -10 33 -23 14 -13 69 -50 123 -83 54 -32 110 -67 125 -76 60 -37 284
-152 387 -199 39 -17 88 -39 110 -49 22 -10 60 -26 85 -35 25 -10 59 -23 75
-30 45 -19 97 -36 125 -42 14 -3 30 -9 35 -14 6 -4 29 -12 50 -18 22 -5 54
-14 70 -20 17 -5 57 -17 90 -26 33 -9 76 -21 95 -27 19 -7 55 -15 80 -19 25
-4 65 -12 90 -18 298 -67 499 -86 910 -86 326 0 522 10 597 31 28 8 73 14 100
14 28 0 72 7 99 15 27 8 61 15 75 15 15 0 49 6 75 14 27 8 72 19 99 26 117 26
140 33 150 41 5 5 23 9 40 9 16 1 41 7 55 15 14 8 33 14 43 15 11 0 33 6 50
13 48 20 98 38 136 47 18 5 38 13 44 19 6 6 17 11 25 11 8 0 43 13 79 30 35
16 67 30 70 30 18 0 337 157 411 202 34 21 64 38 67 38 2 0 23 13 47 28 24 16
59 38 78 48 19 10 61 38 92 62 31 23 59 42 63 42 5 0 151 106 190 138 6 4 41
32 80 62 38 30 77 62 86 70 9 8 51 47 94 85 113 101 249 237 334 335 41 47 77
87 81 90 4 3 63 79 132 170 116 154 195 268 264 383 16 27 37 63 48 80 62 104
140 257 206 402 76 168 90 201 90 217 0 8 5 19 11 25 6 6 14 26 19 44 11 46
30 98 46 131 8 14 14 37 14 50 1 12 7 34 15 48 8 14 14 39 15 56 0 16 4 34 9
40 8 9 15 32 41 149 7 28 18 72 26 99 8 26 14 60 14 75 0 14 7 48 15 75 8 27
15 70 15 95 0 25 5 62 11 81 5 19 14 98 19 175 7 105 13 143 25 151 13 10 15
53 15 293 0 172 -4 280 -9 276 -17 -10 -21 10 -30 161 -5 82 -14 162 -20 177
-6 16 -11 46 -11 69 0 37 -8 80 -40 223 -6 28 -15 70 -19 95 -4 25 -12 61 -19
80 -26 82 -42 140 -42 157 0 11 -7 28 -15 39 -8 10 -15 30 -15 42 0 13 -6 38
-13 55 -20 46 -38 98 -46 132 -4 17 -13 39 -18 50 -6 11 -19 40 -28 65 -9 25
-25 63 -35 85 -10 22 -30 67 -45 100 -62 140 -174 353 -238 452 -15 24 -27 45
-27 47 0 4 -33 56 -82 130 -40 59 -172 237 -205 275 -21 24 -42 51 -47 60 -10
17 -100 123 -170 201 -208 229 -555 523 -821 694 -49 32 -101 66 -115 76 -14
9 -52 32 -85 50 -33 19 -78 44 -100 57 -70 39 -210 107 -400 193 -22 10 -78
32 -125 50 -113 42 -158 59 -198 76 -18 8 -40 14 -50 14 -9 0 -34 6 -57 14
-66 23 -218 65 -280 77 -106 21 -154 32 -206 45 -30 8 -76 14 -102 14 -25 0
-58 5 -74 11 -22 8 -241 28 -325 29 -10 0 -18 7 -18 15 0 13 -37 15 -270 15
-220 0 -270 -2 -270 -14z m635 -175 c161 -11 285 -26 367 -47 32 -8 71 -14 87
-14 15 0 48 -7 71 -15 23 -8 57 -15 76 -15 18 0 35 -4 38 -9 4 -5 25 -12 49
-16 23 -4 65 -14 92 -22 28 -8 73 -22 100 -30 28 -8 59 -19 70 -23 11 -5 36
-13 55 -19 19 -5 60 -19 90 -31 30 -11 75 -28 100 -37 24 -8 60 -24 79 -34 20
-11 40 -19 46 -19 15 0 313 -149 383 -192 34 -21 66 -38 70 -38 15 0 282 -177
337 -222 18 -16 37 -28 43 -28 6 0 12 -3 14 -8 2 -4 35 -32 73 -62 39 -30 75
-59 81 -65 7 -5 36 -30 65 -55 150 -127 264 -238 408 -401 99 -111 116 -132
173 -206 26 -35 53 -70 60 -78 7 -9 18 -21 23 -28 6 -7 58 -84 116 -172 102
-153 120 -183 202 -337 20 -37 41 -75 46 -85 18 -34 89 -188 115 -253 15 -36
31 -74 36 -85 45 -102 146 -414 164 -505 8 -40 26 -111 42 -161 8 -26 14 -61
14 -78 0 -17 6 -57 14 -89 39 -155 59 -415 58 -737 -1 -275 -14 -524 -31 -575
-6 -19 -11 -53 -11 -75 0 -22 -7 -62 -15 -89 -8 -27 -15 -67 -15 -88 0 -22 -5
-48 -11 -59 -6 -11 -14 -41 -19 -67 -9 -44 -22 -99 -51 -212 -6 -25 -18 -60
-25 -78 -8 -18 -14 -41 -14 -52 0 -10 -4 -21 -9 -24 -5 -3 -12 -21 -15 -40 -4
-20 -13 -48 -21 -63 -8 -15 -15 -36 -15 -45 0 -9 -6 -29 -14 -45 -19 -36 -46
-99 -46 -106 0 -3 -14 -36 -31 -74 -17 -37 -42 -93 -56 -123 -39 -86 -79 -163
-150 -285 -12 -22 -26 -47 -30 -55 -3 -8 -18 -33 -33 -55 -15 -22 -62 -93
-104 -157 -43 -64 -84 -122 -92 -129 -8 -6 -14 -17 -14 -24 0 -8 -4 -15 -8
-17 -4 -2 -30 -31 -57 -66 -100 -127 -119 -149 -228 -270 -208 -228 -500 -477
-760 -648 -56 -37 -119 -79 -141 -93 -43 -29 -68 -43 -111 -65 -16 -9 -66 -35
-110 -60 -79 -44 -137 -73 -205 -103 -56 -24 -91 -40 -163 -72 -38 -17 -74
-31 -80 -31 -7 0 -21 -6 -32 -14 -11 -7 -36 -17 -55 -21 -19 -4 -39 -10 -45
-14 -5 -4 -37 -15 -70 -25 -33 -10 -73 -24 -88 -32 -16 -8 -39 -14 -53 -14
-13 0 -41 -6 -61 -14 -70 -25 -240 -65 -325 -76 -37 -5 -76 -13 -87 -19 -11
-6 -41 -11 -68 -11 -26 -1 -68 -6 -93 -11 -114 -27 -682 -40 -940 -21 -138 9
-216 19 -340 44 -30 6 -80 14 -110 19 -63 9 -173 34 -198 45 -9 3 -35 10 -57
15 -49 10 -123 29 -150 39 -11 5 -51 18 -90 30 -38 11 -88 28 -110 37 -22 8
-58 22 -80 30 -48 19 -66 26 -127 52 -26 12 -49 21 -52 21 -6 0 -193 86 -219
101 -10 5 -48 26 -85 46 -140 75 -179 97 -237 137 -33 23 -76 50 -95 60 -19
11 -51 31 -70 46 -19 15 -66 48 -105 75 -38 26 -72 51 -75 54 -3 4 -27 25 -55
46 -27 22 -52 42 -55 45 -3 3 -18 16 -35 29 -74 57 -285 255 -363 342 -155
171 -215 242 -304 361 -155 208 -225 317 -359 565 -16 29 -33 60 -38 70 -21
38 -101 211 -101 218 0 4 -14 36 -30 72 -17 35 -30 70 -30 77 0 7 -7 21 -15
32 -8 10 -15 28 -15 39 0 11 -7 33 -15 49 -8 15 -15 36 -15 45 0 9 -6 28 -14
43 -8 15 -17 41 -21 59 -4 19 -11 40 -15 49 -9 17 -27 84 -40 150 -6 25 -14
54 -19 65 -6 11 -12 36 -14 55 -2 19 -9 55 -15 80 -19 78 -32 152 -42 238 -5
46 -12 88 -16 93 -12 20 -27 317 -27 539 0 243 15 505 32 575 6 22 11 61 11
86 0 26 7 66 15 89 8 23 15 59 15 80 0 21 7 54 15 73 8 20 15 48 15 63 0 14 7
47 14 73 8 25 22 73 32 106 26 97 75 247 90 282 8 17 14 36 14 42 0 6 7 27 16
48 9 21 20 47 25 58 4 11 20 49 35 85 23 58 38 90 93 210 9 19 27 53 40 75 14
22 42 74 63 115 44 84 54 102 84 145 11 17 38 59 59 95 21 36 65 100 97 143
32 43 58 82 58 86 0 5 3 11 8 13 6 2 85 100 124 153 45 60 222 251 330 355
135 131 404 360 423 360 2 0 39 26 82 58 77 57 211 144 288 187 38 22 209 116
244 135 35 20 209 100 216 100 4 0 36 14 72 30 35 17 70 30 76 30 7 0 21 6 32
13 11 7 47 21 80 31 33 10 76 24 95 31 39 15 103 34 195 60 33 9 81 23 106 31
26 7 58 14 72 14 13 0 44 7 67 15 23 8 57 15 74 15 17 0 53 7 80 15 27 8 70
15 95 15 25 1 73 7 106 15 33 8 105 15 160 16 55 1 114 5 130 9 37 9 431 4
620 -9z"/>
<path d="M4035 8510 c-71 -5 -148 -13 -170 -19 -22 -6 -61 -11 -86 -11 -25 0
-68 -7 -95 -15 -27 -8 -62 -15 -78 -15 -27 0 -53 -5 -186 -39 -85 -22 -165
-42 -200 -50 -19 -4 -45 -13 -57 -19 -12 -7 -30 -12 -40 -12 -10 0 -31 -7 -47
-15 -15 -8 -36 -15 -45 -15 -10 0 -26 -7 -37 -15 -10 -8 -26 -15 -35 -15 -9 0
-38 -9 -65 -21 -27 -11 -60 -25 -74 -31 -14 -5 -38 -16 -53 -24 -16 -8 -33
-14 -38 -14 -9 0 -127 -52 -159 -71 -8 -4 -38 -20 -67 -34 -28 -14 -55 -30
-58 -35 -3 -6 -12 -10 -20 -10 -12 0 -188 -102 -264 -152 -14 -10 -33 -21 -41
-25 -8 -3 -34 -20 -56 -37 -23 -17 -52 -38 -64 -46 -13 -8 -50 -35 -82 -60
-179 -135 -246 -189 -252 -206 -3 -8 -11 -14 -19 -14 -11 0 -284 -273 -390
-390 -31 -33 -104 -124 -131 -160 -11 -16 -42 -56 -69 -90 -26 -33 -47 -63
-47 -66 0 -2 -5 -10 -10 -17 -27 -32 -80 -107 -80 -112 0 -4 -14 -28 -31 -54
-31 -44 -94 -149 -134 -221 -10 -19 -29 -53 -42 -75 -12 -22 -25 -47 -29 -55
-3 -8 -10 -22 -15 -30 -5 -8 -12 -22 -15 -30 -3 -8 -19 -43 -35 -77 -16 -35
-29 -67 -29 -72 0 -5 -6 -22 -14 -38 -19 -37 -40 -87 -61 -143 -9 -25 -23 -60
-31 -78 -8 -18 -14 -41 -14 -50 0 -10 -4 -22 -9 -28 -6 -5 -14 -27 -20 -49 -6
-22 -18 -65 -27 -95 -20 -68 -39 -140 -54 -200 -6 -25 -16 -65 -22 -90 -6 -25
-15 -70 -19 -100 -5 -30 -13 -84 -19 -120 -33 -193 -41 -283 -46 -533 -9 -413
14 -688 81 -987 9 -36 15 -72 15 -81 0 -9 7 -41 16 -70 8 -30 22 -79 30 -109
8 -30 20 -68 26 -85 5 -16 13 -43 18 -60 10 -37 35 -109 76 -217 18 -48 41
-105 88 -211 67 -153 252 -500 276 -517 4 -3 16 -21 26 -40 27 -51 223 -324
243 -340 4 -3 16 -17 27 -32 82 -106 396 -429 514 -528 29 -25 60 -53 69 -63
8 -9 20 -17 26 -17 6 0 33 -19 60 -43 28 -24 82 -65 120 -92 39 -26 86 -60
105 -74 19 -14 51 -35 70 -45 19 -11 37 -22 40 -26 3 -3 46 -30 95 -59 50 -29
97 -56 105 -61 8 -5 51 -28 95 -50 44 -23 87 -45 95 -49 15 -8 137 -63 195
-86 17 -7 41 -18 55 -23 37 -16 130 -52 170 -67 88 -31 107 -37 130 -42 14 -3
39 -11 57 -19 17 -8 40 -14 51 -14 11 0 33 -7 48 -15 16 -8 39 -15 52 -15 13
0 44 -6 70 -14 26 -8 81 -21 122 -29 41 -9 109 -23 150 -32 41 -8 91 -15 110
-15 19 0 71 -7 115 -16 118 -25 862 -25 980 -1 44 10 97 17 119 17 21 0 70 7
110 16 39 8 105 22 146 30 41 9 96 22 121 30 26 8 57 14 69 14 12 0 36 6 53
14 18 7 52 18 77 25 87 23 100 27 210 66 146 52 253 98 430 184 163 79 372
197 378 213 2 4 8 8 13 8 7 0 142 87 174 113 23 18 140 104 179 132 23 17 65
52 93 78 27 26 69 62 92 80 35 26 322 317 364 367 6 8 40 49 74 90 34 41 75
91 91 110 16 19 41 53 55 76 14 22 31 47 39 55 12 12 36 47 90 128 10 14 21
33 25 41 3 8 10 17 13 20 4 3 29 43 55 90 26 47 55 96 64 110 10 14 39 70 65
125 27 55 53 107 57 115 5 8 12 22 15 30 4 8 19 43 35 78 16 34 29 66 29 71 0
5 6 22 14 38 27 54 46 104 46 121 0 9 7 26 15 36 8 11 15 28 15 38 0 9 6 32
14 50 20 49 37 99 46 138 5 19 16 62 25 95 22 77 53 215 65 285 5 30 13 80 19
110 41 222 46 290 45 690 -1 324 -4 409 -18 475 -9 44 -16 97 -16 118 0 21 -6
66 -14 100 -13 56 -19 86 -46 222 -11 58 -31 135 -45 175 -7 19 -18 55 -24 80
-17 64 -27 100 -42 140 -46 132 -88 240 -115 293 -8 16 -14 34 -14 39 0 13
-152 319 -181 363 -10 17 -22 37 -26 45 -18 38 -77 135 -85 138 -4 2 -8 8 -8
12 0 13 -152 237 -202 297 -24 29 -58 72 -77 95 -91 117 -384 420 -510 528
-169 145 -410 324 -481 357 -8 3 -17 10 -20 13 -10 13 -232 140 -245 140 -8 0
-16 4 -20 10 -7 11 -219 114 -320 156 -41 16 -71 29 -129 53 -27 12 -54 21
-61 21 -8 0 -26 6 -42 14 -29 14 -76 31 -128 46 -16 5 -52 16 -80 24 -27 9
-70 21 -95 27 -25 6 -67 17 -95 24 -27 8 -84 20 -125 29 -41 8 -107 22 -146
30 -40 9 -87 16 -105 16 -19 0 -72 7 -119 15 -102 19 -642 28 -845 15z m663
-112 c9 -9 12 -91 11 -312 -1 -166 -4 -312 -8 -325 -7 -27 -51 -45 -88 -36
-22 5 -23 8 -25 188 -3 154 -5 182 -18 182 -13 0 -15 -25 -18 -157 -2 -156 -3
-157 -29 -177 -29 -24 -65 -27 -81 -8 -6 7 -12 46 -14 87 l-3 74 -156 -3 -156
-3 -16 26 c-14 21 -17 55 -17 224 0 141 3 201 12 210 8 8 52 12 134 12 131 0
149 -6 142 -52 -3 -21 -9 -23 -83 -28 l-80 -5 0 -160 0 -160 95 0 c52 0 103 4
113 7 15 7 17 26 17 208 l0 200 60 0 59 0 3 -102 c2 -84 6 -103 18 -103 12 0
16 19 18 99 1 55 8 106 14 113 13 16 80 17 96 1z m-2107 -565 c34 -64 43 -79
58 -96 21 -26 4 -51 -52 -80 -28 -16 -65 -37 -82 -47 -16 -11 -39 -24 -50 -30
-11 -6 -33 -19 -50 -30 -16 -10 -52 -31 -80 -45 -27 -14 -68 -37 -90 -50 -49
-30 -63 -30 -96 -2 -23 20 -89 119 -89 134 0 3 -7 14 -16 24 -15 16 -14 19 3
36 23 24 69 53 83 53 6 0 16 -11 22 -25 16 -37 30 -34 125 28 24 15 45 27 49
27 3 0 33 16 65 36 56 35 74 64 49 79 -20 13 -9 31 38 57 l47 27 21 -25 c12
-15 32 -46 45 -71z m3675 -2 c5 -5 31 -21 59 -36 l49 -27 24 27 23 28 37 -19
c48 -25 54 -33 47 -71 -7 -37 6 -52 70 -83 34 -16 45 -27 45 -45 0 -28 -18
-36 -64 -28 -36 6 -36 5 -36 -32 0 -43 -35 -112 -62 -121 -10 -3 -18 -9 -18
-13 0 -13 -77 -22 -130 -15 -39 5 -56 15 -92 50 -83 82 -88 178 -11 250 20 19
40 34 44 34 18 0 8 26 -13 35 -27 12 -34 39 -16 59 15 17 30 20 44 7z m-3489
-167 c6 -17 -13 -42 -42 -55 -11 -5 -33 -18 -50 -29 -16 -11 -39 -24 -50 -30
-69 -37 -95 -57 -95 -76 0 -24 50 -16 102 16 26 17 53 30 58 30 6 0 13 7 16
15 14 35 46 10 84 -63 12 -23 26 -45 31 -48 5 -3 9 -20 9 -38 0 -56 -74 -114
-94 -73 -3 6 -15 26 -26 42 -11 17 -24 40 -30 52 l-9 23 -38 -21 c-21 -11 -51
-29 -68 -39 -31 -19 -43 -26 -130 -74 -27 -15 -63 -36 -80 -47 -35 -22 -72
-39 -85 -39 -5 0 -13 12 -16 26 -5 21 -1 31 22 50 16 13 33 23 37 24 13 0 127
72 127 79 0 12 -23 31 -37 31 -10 0 -102 -51 -163 -90 -8 -6 -25 -14 -37 -19
-11 -6 -24 -15 -28 -20 -11 -18 -32 -12 -49 14 -16 25 -16 27 5 44 13 10 54
35 93 55 39 20 85 46 101 56 17 11 37 23 45 27 14 6 145 82 180 104 8 5 24 14
35 19 11 6 34 19 50 30 17 11 40 24 52 29 11 5 24 15 28 20 8 14 44 -4 52 -25z
m3953 -39 c7 -8 19 -15 26 -15 8 0 19 -11 25 -24 9 -20 7 -30 -15 -62 -31 -46
-32 -61 -6 -89 26 -27 17 -65 -16 -65 -12 0 -26 5 -29 10 -12 19 -24 10 -51
-37 -46 -80 -61 -93 -115 -93 -42 0 -47 2 -54 27 -4 19 0 34 14 54 12 16 21
31 21 34 0 3 24 45 53 93 29 48 64 108 77 135 24 49 47 59 70 32z m-2075 -26
c39 -5 111 -14 160 -19 113 -12 268 -41 390 -75 115 -32 171 -48 190 -56 30
-13 107 -40 130 -46 21 -5 72 -27 117 -50 14 -7 33 -13 41 -13 8 0 20 -7 27
-15 7 -8 20 -15 30 -15 9 0 37 -11 61 -24 128 -68 171 -93 249 -139 275 -166
551 -396 769 -641 98 -112 251 -326 345 -486 31 -52 60 -102 65 -110 11 -18
76 -151 97 -200 61 -136 89 -210 103 -265 4 -17 12 -39 18 -50 10 -19 22 -59
57 -188 37 -139 58 -247 75 -392 6 -44 14 -114 20 -155 37 -266 -16 -873 -95
-1093 -8 -20 -14 -47 -14 -58 0 -12 -6 -35 -14 -52 -7 -18 -21 -59 -31 -92
-10 -33 -24 -72 -31 -87 -8 -14 -14 -33 -14 -41 0 -9 -6 -28 -14 -44 -14 -28
-38 -80 -62 -138 -17 -39 -83 -176 -94 -195 -8 -12 -68 -116 -108 -187 -30
-51 -182 -259 -251 -343 -165 -198 -361 -384 -556 -528 -38 -28 -74 -55 -80
-59 -13 -10 -95 -65 -117 -78 -9 -5 -54 -32 -100 -60 -45 -27 -92 -55 -103
-62 -19 -12 -29 -16 -57 -28 -7 -3 -33 -16 -57 -30 -24 -14 -52 -25 -61 -25
-10 0 -23 -7 -30 -15 -7 -8 -19 -15 -27 -15 -8 0 -27 -6 -41 -13 -15 -8 -42
-21 -60 -30 -19 -9 -41 -17 -51 -17 -9 0 -26 -7 -37 -15 -10 -8 -30 -15 -42
-15 -13 0 -36 -6 -50 -14 -25 -12 -63 -24 -195 -60 -100 -27 -142 -37 -207
-46 -36 -6 -78 -15 -94 -20 -16 -6 -50 -10 -75 -10 -25 0 -91 -7 -146 -15
-118 -17 -479 -20 -574 -4 -35 5 -103 14 -150 20 -145 16 -270 39 -391 73
-122 35 -168 49 -198 62 -18 8 -43 14 -55 14 -12 0 -31 7 -41 15 -11 8 -28 15
-37 15 -10 0 -32 8 -51 17 -18 9 -45 22 -60 30 -14 7 -33 13 -41 13 -8 0 -20
7 -27 15 -7 8 -23 15 -35 15 -12 0 -28 7 -35 15 -7 8 -18 15 -25 15 -6 0 -32
11 -56 25 -24 14 -51 28 -59 32 -25 11 -191 112 -250 151 -348 232 -668 552
-902 902 -51 77 -139 226 -166 282 -13 26 -27 50 -33 53 -5 4 -9 14 -9 24 0
10 -7 24 -15 31 -8 7 -15 23 -15 35 0 12 -7 28 -15 35 -8 7 -15 19 -15 27 0 8
-6 27 -13 41 -33 65 -46 99 -103 277 -42 130 -58 186 -78 280 -28 130 -37 180
-46 280 -6 54 -15 126 -20 160 -31 190 5 724 62 940 6 22 15 58 19 80 10 54
29 122 44 165 7 19 21 62 30 95 10 33 24 74 32 92 7 17 13 36 13 41 0 6 6 23
14 39 23 44 46 100 46 111 0 5 7 15 15 22 8 7 15 19 15 28 0 13 52 125 80 172
5 8 37 62 72 120 178 299 369 530 640 777 65 59 265 211 348 265 108 69 173
110 194 119 12 5 35 18 51 29 17 11 37 22 45 26 8 3 22 9 30 14 24 14 108 53
208 96 20 9 50 23 65 30 16 8 33 14 39 14 5 0 24 6 41 14 18 8 43 16 57 19 14
3 61 17 105 32 136 44 172 55 190 55 10 0 41 6 69 14 64 18 209 42 346 57 58
6 110 12 115 14 25 8 438 3 500 -6z m1476 -147 c13 -10 31 -22 39 -25 8 -4 31
-17 50 -28 19 -12 55 -32 80 -46 25 -13 68 -38 95 -54 28 -17 62 -35 78 -42
15 -6 27 -14 27 -18 0 -4 14 -12 30 -19 23 -10 30 -19 30 -40 0 -15 -7 -33
-15 -40 -8 -7 -15 -17 -15 -22 0 -21 -53 -77 -79 -83 -38 -8 -81 10 -81 34 0
10 12 42 26 70 31 59 27 67 -39 101 -23 12 -55 30 -72 41 -16 10 -37 22 -45
26 -8 4 -46 26 -85 48 -38 23 -78 44 -87 48 -12 4 -18 17 -18 37 0 26 3 30 29
30 15 0 39 -8 52 -18z m-5091 -982 c15 -11 38 -24 51 -30 13 -6 47 -24 74 -41
28 -16 64 -36 81 -44 48 -22 94 -72 94 -103 -1 -15 -10 -38 -20 -51 -19 -23
-21 -23 -53 -7 -17 9 -45 26 -62 36 -16 11 -40 24 -52 29 -11 5 -24 15 -28 21
-8 13 -55 -26 -55 -45 0 -24 -37 -46 -64 -39 -32 8 -33 24 -1 74 32 51 31 65
-2 79 -97 40 -114 79 -61 138 22 24 46 20 98 -17z m6720 -2 c6 -13 21 -41 33
-63 33 -56 95 -170 129 -235 16 -30 40 -75 54 -99 l24 -44 -21 -15 c-12 -8
-40 -25 -63 -37 -122 -65 -162 -88 -174 -97 -6 -6 -31 -11 -53 -12 -33 -1 -46
5 -66 28 -13 15 -23 35 -21 43 3 14 84 62 216 127 28 15 52 33 52 41 0 7 -9
30 -21 50 -12 19 -41 72 -64 118 -24 45 -56 105 -71 134 -23 43 -25 54 -15 67
19 23 50 20 61 -6z m-165 -184 c14 -26 16 -40 9 -52 -10 -15 -101 -70 -151
-92 -13 -5 -34 -17 -48 -26 -23 -15 -23 -17 -9 -40 16 -23 17 -24 48 -7 17 10
38 23 46 29 30 23 133 74 150 74 11 0 26 -16 38 -40 l19 -40 -26 -17 c-14 -9
-57 -33 -96 -53 -106 -54 -122 -67 -108 -88 7 -9 24 -39 38 -67 14 -27 29 -57
34 -65 37 -69 38 -76 11 -85 -28 -9 -60 3 -60 23 0 10 -6 26 -14 37 -13 20
-64 111 -118 215 -16 30 -37 69 -48 85 -41 68 -90 171 -90 191 0 14 8 24 23
28 25 6 40 -9 63 -61 8 -18 19 -33 26 -33 6 0 32 12 57 28 25 15 67 38 93 50
26 13 50 27 53 33 13 20 41 7 60 -27z m-6687 10 c27 -8 28 -28 2 -77 -32 -60
-27 -71 46 -108 l65 -34 37 22 c20 11 39 29 42 40 3 11 14 31 25 46 15 20 26
25 43 21 26 -7 31 -54 7 -74 -8 -7 -15 -17 -15 -22 0 -17 -61 -88 -76 -88 -24
0 -46 -35 -48 -76 -2 -38 -46 -142 -75 -176 -19 -24 -38 -23 -51 3 -9 16 -6
28 14 64 15 24 26 59 26 79 0 29 -7 40 -42 68 -46 35 -83 58 -95 58 -5 0 -17
-19 -28 -41 -10 -22 -28 -47 -39 -55 -18 -12 -23 -11 -43 8 -21 19 -21 23 -8
38 8 9 15 19 15 23 0 5 93 166 131 227 5 8 13 25 19 38 10 24 13 25 48 16z
m612 -110 c0 -10 -54 -111 -100 -184 -5 -8 -18 -32 -29 -52 -11 -21 -33 -57
-48 -80 -15 -24 -36 -59 -46 -78 -38 -72 -92 -97 -144 -67 -12 6 -42 23 -67
36 -34 18 -46 30 -46 47 0 13 5 26 11 29 5 4 14 18 19 31 12 30 32 30 84 0 63
-36 85 -41 93 -19 4 10 20 37 35 59 15 23 28 45 28 48 0 3 18 36 41 72 22 37
45 77 50 88 16 35 35 65 53 85 15 16 22 18 42 9 13 -6 24 -17 24 -24z m-835
-1784 c4 -16 11 -30 16 -30 5 0 9 -8 9 -18 0 -10 7 -27 15 -38 8 -10 15 -25
15 -32 0 -8 6 -28 14 -45 24 -54 39 -119 43 -190 11 -170 -114 -236 -185 -97
-20 41 -22 57 -19 165 2 66 10 147 17 180 27 122 61 170 75 105z m7447 -12
c49 -139 64 -352 31 -425 -35 -73 -77 -100 -126 -80 -91 39 -86 221 13 442 7
17 20 47 29 67 9 21 21 38 27 38 6 0 18 -19 26 -42z m-7071 -393 c-6 -19 -16
-56 -21 -82 -9 -52 -25 -103 -46 -145 -8 -14 -14 -33 -14 -42 0 -9 -4 -16 -10
-16 -5 0 -12 -11 -16 -25 -3 -14 -29 -45 -57 -70 -46 -42 -51 -44 -71 -32 -18
12 -21 26 -24 87 -3 63 1 80 25 128 23 46 87 126 151 192 66 66 106 69 83 5z
m6736 -12 c66 -65 129 -149 156 -206 25 -55 24 -168 -2 -192 -19 -16 -21 -16
-49 4 -76 54 -141 176 -177 336 -8 33 -17 72 -21 88 -11 46 27 34 93 -30z
m-7377 -86 c177 -66 288 -140 329 -217 25 -49 28 -115 5 -124 -26 -10 -95 13
-139 47 -5 4 -24 18 -41 30 -17 12 -50 45 -73 72 -24 28 -54 63 -67 79 -13 15
-24 30 -24 32 0 2 -11 20 -25 40 -39 57 -32 66 35 41z m7990 8 c0 -31 -184
-265 -208 -265 -4 0 -19 -10 -32 -22 -50 -45 -123 -74 -154 -62 -22 9 -21 76
3 122 35 69 153 152 286 202 72 27 105 35 105 25z m-7280 -231 c0 -19 -7 -59
-16 -87 -8 -29 -23 -77 -32 -107 -9 -30 -22 -62 -29 -71 -7 -8 -13 -23 -13
-31 0 -9 -7 -21 -15 -28 -8 -7 -15 -18 -15 -25 0 -6 -16 -28 -35 -48 -32 -32
-38 -35 -60 -25 -44 20 -47 150 -5 234 21 43 187 221 208 223 7 1 12 -12 12
-35z m6603 -37 c132 -133 170 -215 153 -332 -11 -73 -63 -75 -112 -3 -16 24
-32 45 -36 46 -5 2 -8 10 -8 19 0 8 -6 27 -14 41 -49 96 -94 302 -67 302 7 0
44 -33 84 -73z m-7219 -92 c11 -8 27 -15 35 -15 19 0 127 -54 193 -97 88 -56
146 -177 103 -213 -25 -21 -116 14 -208 79 -26 19 -47 37 -47 40 0 3 -13 20
-28 36 -52 56 -122 153 -122 169 0 21 48 21 74 1z m7816 -2 c-1 -25 -151 -208
-202 -246 -72 -54 -165 -92 -197 -82 -53 16 4 157 84 212 53 36 187 103 205
103 9 0 25 7 36 15 28 21 74 20 74 -2z m-7110 -155 c0 -13 -5 -43 -11 -68 -6
-25 -14 -72 -19 -105 -8 -61 -22 -110 -46 -157 -8 -14 -14 -31 -14 -38 0 -7
-14 -30 -31 -51 -22 -28 -38 -39 -57 -39 -24 0 -29 6 -46 59 -19 59 -18 67 5
150 14 52 75 144 144 219 52 56 75 65 75 30z m6407 -34 c70 -73 123 -155 145
-224 22 -68 22 -71 1 -142 -16 -52 -20 -58 -44 -58 -20 0 -36 11 -58 39 -17
21 -31 44 -31 51 0 7 -6 24 -14 38 -8 15 -21 52 -30 82 -14 52 -46 232 -46
258 0 25 26 10 77 -44z m-7024 -166 c12 -6 38 -15 57 -19 93 -19 205 -73 250
-120 53 -56 69 -80 70 -107 3 -42 1 -49 -15 -56 -20 -7 -116 14 -136 31 -8 7
-20 13 -25 13 -47 0 -274 214 -274 258 0 15 44 16 73 0z m7637 0 c0 -45 -225
-258 -273 -258 -6 0 -18 -6 -26 -13 -9 -7 -38 -19 -65 -25 -41 -11 -52 -10
-71 2 -17 11 -21 21 -17 48 3 18 11 37 18 41 8 4 14 14 14 21 0 43 173 141
290 165 20 4 44 13 55 19 27 15 75 15 75 0z m-6922 -126 c4 -52 -14 -224 -29
-282 -28 -107 -69 -168 -106 -156 -36 12 -53 58 -53 149 0 63 4 88 15 97 8 7
15 21 15 31 0 10 4 20 9 23 5 3 19 25 31 48 12 24 25 45 29 48 3 3 19 24 35
48 16 23 34 41 40 39 6 -2 12 -22 14 -45z m6173 26 c11 -21 21 -34 47 -63 6
-7 12 -17 12 -21 0 -4 6 -15 14 -23 7 -9 28 -43 45 -75 27 -52 31 -68 31 -141
0 -61 -4 -86 -15 -95 -8 -7 -15 -18 -15 -26 0 -7 -9 -16 -21 -19 -38 -12 -80
47 -109 155 -15 55 -35 292 -27 314 9 22 24 20 38 -6z m-6691 -263 c23 -8 55
-15 70 -15 16 0 41 -6 57 -14 15 -8 46 -23 68 -33 48 -22 130 -103 139 -137
11 -44 -1 -56 -60 -56 -29 0 -70 7 -91 16 -91 39 -119 54 -140 74 -12 11 -37
30 -55 43 -51 34 -138 119 -132 129 8 13 98 9 144 -7z m660 -162 c-1 -181 -6
-215 -50 -305 -17 -35 -58 -37 -81 -5 -25 35 -42 112 -37 169 5 59 63 187 131
290 10 16 23 28 28 28 5 0 9 -74 9 -177z m5911 112 c5 -11 18 -33 29 -50 72
-110 95 -225 65 -313 -31 -88 -64 -106 -101 -54 -40 53 -54 137 -54 308 0 89
3 164 7 168 8 7 37 -25 54 -59z m743 57 c5 -8 -77 -86 -154 -147 -25 -19 -49
-39 -55 -43 -19 -15 -75 -40 -105 -47 -16 -4 -32 -11 -35 -16 -4 -5 -32 -9
-65 -9 -64 0 -75 11 -63 58 9 37 90 114 148 140 28 13 58 27 67 33 10 5 32 9
50 10 18 0 49 7 68 14 38 15 136 20 144 7z m-6489 -333 c10 -35 15 -105 15
-200 0 -125 -3 -153 -20 -192 -29 -64 -47 -68 -92 -16 -67 77 -64 189 8 354 7
17 15 37 18 45 3 8 10 22 15 30 5 8 12 24 16 34 9 28 24 8 40 -55z m5575 24
c81 -181 83 -187 84 -287 1 -76 -2 -98 -16 -113 -10 -11 -18 -24 -18 -29 0 -5
-11 -16 -23 -25 -31 -22 -63 -9 -72 30 -4 17 -11 33 -16 36 -15 10 -11 303 5
362 13 49 23 73 31 73 2 0 13 -21 25 -47z m-6199 -32 c89 -13 143 -27 180 -46
91 -45 148 -112 134 -156 -5 -16 -17 -19 -73 -19 -77 1 -177 33 -257 83 -47
29 -141 102 -157 121 -34 42 -10 44 173 17z m6949 4 c0 -17 -12 -28 -90 -88
-122 -93 -226 -136 -332 -137 -56 0 -68 3 -73 19 -8 27 8 62 47 97 68 63 112
80 263 104 143 23 185 24 185 5z m-6146 -217 c9 -12 16 -37 16 -54 0 -17 7
-51 15 -74 10 -30 15 -82 15 -174 -1 -115 -3 -134 -20 -155 -18 -21 -23 -22
-49 -11 -35 14 -76 87 -85 150 -6 51 5 147 24 200 7 19 19 51 26 70 7 19 15
43 18 53 7 23 22 22 40 -5z m5213 -23 c8 -22 18 -54 22 -70 4 -17 13 -41 20
-54 7 -13 13 -62 14 -115 1 -101 -18 -155 -69 -195 -34 -26 -41 -26 -65 2 -16
19 -18 40 -19 157 0 93 5 148 15 175 8 22 14 54 15 70 0 34 26 78 42 73 6 -2
17 -22 25 -43z m-5667 -93 c96 -31 159 -77 174 -129 19 -61 -133 -71 -261 -17
-17 8 -38 14 -46 14 -8 0 -20 7 -27 15 -7 8 -17 15 -22 15 -17 0 -157 95 -157
108 -1 21 270 16 339 -6z m6409 6 c0 -13 -140 -108 -157 -108 -5 0 -15 -7 -22
-15 -7 -8 -22 -15 -34 -15 -12 0 -27 -5 -33 -11 -15 -15 -126 -38 -183 -39
-146 -1 -94 117 80 181 58 21 350 27 349 7z m-959 -128 c0 -16 8 -49 17 -72
25 -63 26 -278 1 -305 -10 -11 -18 -24 -18 -29 0 -13 -59 -64 -74 -64 -7 0
-20 6 -30 13 -15 11 -17 29 -17 120 1 102 5 129 43 242 6 17 12 41 15 55 8 33
42 82 54 75 5 -4 9 -19 9 -35z m-4788 8 c8 -13 17 -34 20 -48 3 -14 10 -38 16
-55 38 -113 42 -140 43 -242 0 -91 -2 -109 -17 -120 -25 -19 -39 -16 -69 11
-57 53 -69 91 -70 216 0 86 5 126 18 158 9 23 17 56 17 72 0 36 21 40 42 8z
m-459 -159 c85 -12 128 -30 174 -72 22 -20 33 -39 33 -57 0 -25 -4 -28 -61
-39 -68 -14 -183 -2 -254 26 -70 28 -125 54 -131 64 -3 5 -13 9 -22 9 -19 1
-62 33 -62 48 0 8 44 13 233 30 10 1 51 -3 90 -9z m5905 -6 c45 -3 82 -9 82
-13 0 -14 -39 -41 -106 -75 -38 -19 -73 -35 -77 -35 -5 0 -23 -6 -40 -14 -59
-26 -188 -39 -251 -25 -51 11 -56 15 -56 39 0 27 38 68 91 99 37 22 147 40
214 35 33 -2 97 -7 143 -11z m-5218 -42 c0 -10 7 -24 15 -31 8 -7 15 -19 15
-27 0 -8 6 -27 14 -41 44 -84 76 -206 76 -290 0 -60 -3 -73 -19 -82 -40 -21
-94 23 -142 117 -15 29 -19 58 -19 134 0 111 25 239 46 239 8 0 14 -8 14 -19z
m4335 -55 c8 -32 15 -100 15 -155 0 -112 -16 -161 -72 -222 -39 -42 -55 -49
-85 -38 -21 8 -23 15 -23 76 0 65 23 174 51 238 48 115 81 177 90 168 5 -5 16
-35 24 -67z m-4091 -128 c3 -7 15 -26 26 -43 19 -30 76 -143 100 -200 14 -34
40 -150 40 -181 0 -64 -55 -66 -118 -5 -72 70 -82 106 -82 284 0 128 3 157 14
157 8 0 17 -6 20 -12z m3836 -142 c0 -175 -11 -215 -78 -285 -57 -59 -105 -64
-117 -10 -15 66 35 213 129 386 17 30 47 63 58 63 4 0 8 -69 8 -154z m-4425
106 c87 -30 135 -76 116 -110 -15 -28 -110 -55 -178 -50 -79 6 -196 38 -258
71 -11 6 -33 13 -49 16 -16 4 -31 12 -33 18 -7 20 28 43 65 43 20 1 62 7 92
15 78 19 185 18 245 -3z m5220 3 c33 -8 76 -14 96 -15 19 0 44 -6 54 -14 24
-17 13 -46 -18 -46 -14 0 -30 -7 -37 -15 -7 -8 -21 -15 -32 -15 -11 0 -29 -5
-40 -11 -27 -15 -129 -39 -190 -46 -57 -6 -150 12 -179 36 -21 16 -21 20 -8
49 8 18 19 32 24 32 6 0 16 5 23 12 42 42 201 59 307 33z m-4340 -171 c91
-137 124 -191 124 -204 1 -9 7 -25 15 -36 23 -32 42 -142 29 -162 -15 -24 -67
-17 -108 14 -78 59 -115 167 -115 334 0 116 9 124 55 54z m3272 -81 c-6 -166
-32 -241 -102 -298 -68 -55 -125 -55 -125 1 0 70 48 189 119 292 20 30 41 61
46 70 6 9 16 22 23 30 6 7 12 18 12 23 0 5 7 9 16 9 15 0 16 -15 11 -127z
m-3827 9 c88 -45 101 -81 41 -112 -92 -47 -350 -31 -468 28 -40 20 -42 38 -5
45 15 2 41 9 57 15 91 32 139 40 235 41 83 1 113 -3 140 -17z m4619 3 c25 -8
74 -22 109 -32 70 -20 77 -38 22 -58 -129 -45 -155 -50 -285 -49 -114 0 -135
3 -172 22 -49 25 -54 48 -20 77 51 45 78 53 191 54 71 1 124 -4 155 -14z
m-3795 -52 c62 -68 76 -84 76 -91 0 -4 11 -19 25 -34 24 -26 42 -57 99 -165
22 -42 22 -119 0 -127 -48 -18 -142 40 -176 109 -35 69 -48 108 -48 143 0 20
-4 53 -9 72 -5 19 -11 54 -14 78 -6 51 9 55 47 15z m2732 5 c-3 -13 -10 -63
-17 -113 -6 -49 -17 -104 -25 -122 -8 -17 -14 -36 -14 -42 0 -16 -58 -91 -90
-118 -17 -14 -44 -23 -71 -25 l-44 -3 -3 45 c-4 62 18 109 120 257 80 117 156
180 144 121z m-2357 -202 c148 -155 206 -281 147 -319 -21 -14 -26 -14 -36 -2
-7 8 -21 15 -32 15 -22 0 -118 77 -118 95 0 7 -7 18 -15 25 -8 7 -15 22 -15
34 0 12 -7 31 -15 42 -8 10 -15 32 -15 47 0 15 -7 44 -15 64 -16 37 -20 95 -8
107 7 7 44 -26 122 -108z m2061 80 c0 -29 -36 -169 -50 -195 -5 -11 -10 -27
-10 -35 0 -38 -109 -156 -144 -156 -9 0 -25 -6 -36 -12 -31 -19 -54 1 -58 49
-2 27 2 44 13 53 8 7 15 19 15 27 0 35 241 310 261 297 5 -3 9 -15 9 -28z
m-2998 -17 c53 -11 118 -53 118 -77 0 -13 -51 -47 -102 -66 -40 -15 -70 -17
-180 -13 -132 4 -258 24 -258 40 0 14 44 46 63 47 11 0 31 6 45 14 41 20 91
37 157 51 79 17 92 17 157 4z m3953 -3 c75 -15 124 -31 167 -52 14 -8 34 -14
45 -14 21 -1 63 -33 63 -49 0 -6 -12 -11 -26 -11 -14 0 -50 -7 -79 -16 -69
-19 -292 -15 -345 7 -50 21 -90 49 -90 64 0 21 59 59 110 71 62 16 75 16 155
0z m-2803 -56 c12 -10 46 -38 73 -60 28 -22 59 -49 70 -58 12 -9 48 -53 81
-97 81 -106 94 -175 35 -175 -39 0 -94 22 -137 55 -42 32 -73 65 -74 78 0 4
-13 35 -30 69 -16 33 -30 67 -30 77 0 9 -7 29 -15 45 -17 31 -20 86 -6 86 5 0
20 -9 33 -20z m1548 -9 c0 -16 -7 -42 -15 -57 -8 -16 -15 -37 -15 -47 0 -20
-7 -35 -69 -149 -33 -61 -67 -88 -141 -115 -72 -26 -104 -8 -93 52 12 62 146
216 256 294 26 19 47 38 47 43 0 4 7 8 15 8 10 0 15 -10 15 -29z m-2337 -108
c80 -29 85 -64 14 -104 -91 -51 -102 -54 -289 -54 -97 0 -179 3 -182 6 -4 3
-3 14 0 23 6 15 47 38 179 96 118 53 197 62 278 33z m3267 2 c14 -8 37 -14 51
-15 15 0 32 -7 39 -15 7 -8 18 -15 25 -15 7 0 45 -16 84 -36 60 -30 72 -40 69
-57 -3 -21 -8 -22 -171 -25 -134 -2 -173 1 -197 13 -16 8 -37 15 -46 15 -9 0
-36 16 -60 35 -52 43 -49 67 12 95 48 23 158 26 194 5z m-2894 -146 c8 -6 14
-24 14 -39 0 -36 -23 -52 -164 -114 -29 -13 -79 -19 -191 -23 -209 -8 -210 6
-12 117 9 6 25 15 35 20 9 6 28 15 42 20 14 6 34 15 45 20 11 5 31 11 45 14
41 7 172 -3 186 -15z m2572 1 c10 -5 40 -19 67 -32 28 -13 68 -35 89 -50 21
-16 44 -28 50 -28 19 -1 56 -37 56 -56 0 -16 -12 -17 -152 -11 -152 6 -200 16
-278 59 -63 34 -80 51 -80 78 0 33 14 46 55 53 41 7 173 -2 193 -13z m-2236
-105 c34 -46 -5 -91 -134 -153 -37 -18 -78 -32 -90 -32 -13 0 -48 -7 -78 -15
-62 -17 -166 -20 -175 -5 -7 12 16 49 35 55 8 3 26 15 40 27 46 42 165 115
197 123 18 3 35 11 38 16 4 5 39 9 78 9 64 -1 74 -3 89 -25z m1856 6 c29 -10
76 -33 103 -52 28 -19 60 -39 71 -45 39 -22 118 -96 118 -110 0 -19 -121 -19
-186 1 -27 8 -59 15 -72 15 -12 0 -53 14 -90 32 -132 64 -172 110 -131 155 19
19 32 23 78 23 31 -1 80 -9 109 -19z m-1076 -53 c15 -5 47 -7 70 -4 24 3 110
11 191 18 165 12 197 7 197 -35 0 -22 -6 -25 -52 -31 -29 -3 -69 -6 -88 -6
-33 -1 -34 -1 -15 -16 11 -8 56 -33 100 -55 44 -22 98 -56 120 -75 22 -20 50
-43 63 -51 27 -19 28 -40 3 -70 -26 -31 -54 -29 -93 8 -31 29 -114 89 -123 89
-2 0 -27 14 -55 30 -28 17 -59 30 -68 30 -9 0 -26 7 -36 15 -11 8 -30 15 -42
15 -12 0 -35 7 -50 15 -49 26 -137 14 -227 -31 -16 -8 -37 -14 -47 -14 -10 0
-21 -4 -24 -9 -4 -5 -27 -20 -54 -32 -58 -28 -116 -68 -160 -108 -45 -42 -74
-40 -98 4 l-19 35 33 30 c18 16 36 30 40 30 4 0 20 12 35 26 15 14 63 43 105
64 42 22 86 46 97 54 19 15 18 15 -15 16 -19 0 -59 3 -87 6 -50 6 -53 9 -53
35 0 15 6 30 13 33 20 9 310 -4 339 -16z m-442 -13 c35 -18 36 -23 13 -62 -19
-33 -103 -98 -153 -118 -8 -4 -28 -12 -45 -19 -102 -43 -275 -71 -275 -44 0
20 213 208 237 208 5 0 15 6 21 13 15 14 92 34 140 36 18 0 46 -6 62 -14z
m1177 -15 c23 -10 64 -35 90 -55 69 -53 183 -162 183 -175 0 -25 -189 6 -275
45 -16 7 -37 16 -45 19 -53 23 -135 86 -153 119 -23 40 -22 46 16 63 40 17
124 10 184 -16z"/>
<path d="M2442 7717 c-6 -7 -30 -23 -54 -36 -24 -12 -56 -31 -73 -41 -16 -11
-41 -24 -54 -30 -59 -26 -58 -76 1 -59 18 5 34 12 37 16 3 5 26 18 51 31 25
13 59 32 75 43 17 10 42 24 58 30 19 8 27 18 27 35 0 20 -5 24 -29 24 -16 0
-33 -6 -39 -13z"/>
<path d="M6288 7637 c-54 -44 -55 -106 -4 -149 34 -28 71 -22 111 17 45 46 47
82 4 124 -37 37 -73 40 -111 8z"/>
<path d="M4115 7509 c-22 -4 -89 -13 -150 -18 -60 -6 -123 -15 -140 -20 -31
-10 -109 -27 -185 -40 -25 -4 -55 -13 -67 -19 -12 -7 -31 -12 -43 -12 -12 0
-36 -6 -53 -14 -18 -8 -43 -16 -57 -19 -32 -7 -110 -34 -132 -47 -10 -6 -23
-10 -28 -10 -6 0 -32 -9 -58 -21 -26 -11 -56 -24 -67 -28 -51 -21 -123 -57
-157 -78 -21 -13 -43 -23 -49 -23 -14 0 -208 -116 -319 -191 -293 -199 -605
-509 -802 -799 -111 -163 -228 -372 -303 -545 -38 -87 -45 -104 -45 -118 0 -9
-4 -18 -9 -22 -5 -3 -13 -20 -17 -38 -3 -17 -12 -45 -19 -62 -7 -16 -21 -57
-30 -90 -9 -33 -21 -73 -27 -90 -6 -16 -14 -50 -18 -75 -5 -25 -14 -67 -20
-95 -33 -146 -40 -187 -40 -233 0 -27 -7 -84 -16 -125 -18 -90 -16 -499 4
-637 32 -214 34 -227 72 -410 6 -30 16 -59 21 -65 5 -5 9 -20 9 -33 0 -13 6
-38 14 -55 8 -18 16 -43 19 -57 7 -32 34 -110 47 -132 6 -10 10 -24 10 -32 0
-8 6 -27 14 -43 7 -15 20 -44 28 -63 34 -79 124 -259 160 -318 21 -34 38 -64
38 -67 0 -8 125 -191 184 -270 316 -422 775 -783 1261 -991 17 -7 46 -20 67
-28 20 -9 42 -16 50 -16 8 0 18 -4 24 -8 5 -5 63 -26 129 -46 66 -21 134 -42
150 -48 17 -5 51 -14 77 -18 27 -5 53 -12 59 -16 11 -6 33 -10 204 -34 44 -6
123 -18 175 -26 109 -17 536 -19 579 -3 13 6 61 12 105 15 79 5 163 19 296 49
36 8 74 15 85 15 11 0 33 7 49 15 15 8 35 15 44 15 17 0 263 81 322 107 19 8
49 20 65 27 85 37 308 151 370 191 267 169 421 290 605 474 304 306 521 632
689 1034 23 54 41 103 41 109 0 5 6 24 14 41 22 51 56 162 56 183 0 11 5 25
11 31 6 6 14 35 19 64 8 50 16 87 41 199 6 25 14 93 20 152 5 58 13 118 18
131 13 35 14 484 1 543 -6 26 -15 91 -20 144 -5 53 -14 117 -19 141 -5 24 -17
80 -26 124 -9 44 -21 94 -27 110 -5 17 -13 46 -18 65 -11 52 -72 233 -82 244
-4 6 -8 19 -8 29 0 10 -7 31 -14 45 -8 15 -22 45 -31 67 -32 76 -119 250 -157
313 -21 34 -38 64 -38 67 0 2 -36 57 -80 122 -209 311 -437 550 -735 772 -60
45 -114 85 -120 89 -5 5 -71 44 -145 88 -158 94 -306 168 -440 219 -25 10 -59
24 -77 31 -17 8 -38 14 -46 14 -9 0 -18 4 -21 9 -4 5 -24 12 -46 16 -22 4 -42
11 -45 15 -3 5 -27 12 -53 16 -26 3 -51 10 -57 14 -10 8 -43 16 -165 40 -30 6
-85 17 -121 25 -37 8 -91 15 -120 15 -30 1 -83 7 -119 15 -73 16 -494 19 -565
4z m-18 -701 c-2 -167 -7 -384 -10 -483 -4 -99 -10 -443 -14 -765 l-8 -585
-100 0 -100 0 1 65 c1 36 4 119 8 185 3 66 10 323 16 570 5 248 12 484 15 525
3 41 7 201 10 355 l6 280 77 78 c42 42 83 77 90 77 11 0 13 -54 9 -302z m645
260 c23 -24 56 -58 73 -77 l30 -34 7 -341 c4 -188 10 -366 12 -396 2 -30 7
-176 10 -325 13 -566 22 -859 28 -900 3 -19 -3 -20 -97 -20 l-100 0 -6 480
c-4 264 -11 597 -17 740 -6 143 -11 407 -11 588 -1 369 -4 359 71 285z m-910
-235 c4 -32 -8 -494 -16 -598 -3 -38 -9 -239 -15 -446 -5 -221 -14 -393 -21
-419 -6 -24 -10 -64 -9 -89 1 -25 2 -106 1 -178 l-2 -133 -106 0 -107 0 7 63
c11 95 15 152 25 407 5 129 12 258 15 285 3 28 9 181 15 342 5 166 14 301 20
312 6 11 11 82 11 163 l1 143 77 87 c42 47 82 87 88 87 7 1 13 -11 16 -26z
m1233 -92 l50 -53 8 -192 c4 -105 10 -211 12 -236 3 -25 9 -153 13 -285 4
-132 11 -246 16 -253 4 -8 12 -140 17 -295 11 -341 13 -372 23 -420 l8 -38
-106 3 -107 3 -5 175 c-2 96 -6 207 -9 245 -3 39 -10 212 -15 385 -6 173 -13
342 -16 375 -10 113 -19 660 -11 685 l8 24 32 -34 c18 -19 55 -59 82 -89z
m-1505 -264 c-1 -51 -5 -123 -11 -162 -6 -38 -14 -151 -19 -250 -5 -99 -11
-198 -14 -220 -2 -22 -9 -137 -15 -255 -6 -118 -15 -233 -20 -255 -6 -22 -11
-107 -11 -190 0 -82 -4 -156 -8 -163 -6 -9 -35 -12 -108 -10 l-99 3 4 83 c1
45 7 108 12 140 5 31 13 139 18 239 5 100 13 188 17 195 5 7 11 94 16 193 4
99 12 196 17 215 6 19 11 87 11 150 1 179 10 203 108 304 46 48 88 84 93 81 5
-4 9 -48 9 -98z m1746 23 c44 -45 85 -95 92 -112 7 -17 17 -107 22 -212 6 -99
14 -206 19 -236 5 -30 10 -104 10 -165 1 -60 8 -146 16 -190 8 -44 15 -129 15
-190 0 -60 7 -146 15 -190 8 -44 14 -115 15 -158 l0 -78 -102 3 -103 3 -6 155
c-4 85 -12 191 -17 235 -6 44 -11 136 -12 205 0 69 -5 143 -10 165 -6 22 -15
139 -20 260 -5 121 -14 249 -19 285 -5 36 -10 110 -11 165 -2 128 -2 135 9
135 5 0 44 -36 87 -80z m-1001 -1800 l0 -175 -28 -3 c-16 -2 -34 2 -42 8 -7 6
-62 17 -123 24 -90 11 -131 12 -224 2 -62 -7 -122 -18 -133 -24 -11 -6 -32
-13 -47 -17 -24 -4 -28 -10 -28 -38 0 -18 -6 -57 -14 -87 -7 -30 -16 -90 -20
-133 -3 -43 -10 -86 -16 -97 -5 -10 -10 -43 -10 -72 0 -30 -7 -80 -15 -111 -8
-32 -15 -79 -15 -105 0 -26 -7 -74 -15 -105 -8 -32 -15 -83 -15 -113 0 -30 -5
-65 -11 -76 -6 -12 -14 -59 -17 -105 -4 -71 -3 -83 11 -83 9 0 19 5 22 10 10
17 441 13 495 -4 25 -8 76 -24 115 -36 38 -12 101 -37 140 -56 l70 -35 50 25
c85 42 143 66 159 66 8 0 18 5 21 10 3 6 19 10 35 10 16 0 47 7 68 15 32 13
78 15 258 12 120 -1 229 -7 242 -11 21 -8 22 -6 22 51 0 33 -7 82 -15 109 -8
27 -15 76 -15 109 0 33 -7 82 -15 109 -8 27 -15 70 -15 95 0 25 -7 73 -15 106
-8 33 -14 80 -15 105 0 25 -7 72 -15 103 -8 32 -15 79 -15 105 0 26 -7 72 -15
102 -8 30 -15 70 -15 88 0 18 -6 34 -12 36 -7 2 -38 11 -68 20 -52 15 -297 39
-311 30 -4 -2 -39 -8 -80 -14 -40 -6 -78 -15 -85 -21 -7 -6 -25 -9 -41 -7
l-28 3 0 175 0 175 838 3 837 2 -2 -252 -3 -253 -87 -3 c-49 -1 -88 -4 -88 -5
-1 -1 -3 -27 -5 -57 -3 -30 -9 -91 -15 -135 -5 -44 -12 -100 -14 -125 -12
-117 -62 -322 -102 -418 -8 -18 -14 -40 -14 -50 0 -9 -7 -26 -15 -36 -8 -11
-15 -28 -15 -37 0 -9 -12 -41 -27 -71 -14 -29 -39 -80 -56 -113 -43 -88 -124
-222 -174 -288 -24 -31 -43 -61 -43 -66 0 -5 -3 -11 -7 -13 -5 -1 -26 -25 -47
-52 -22 -27 -64 -75 -94 -107 -49 -53 -59 -79 -30 -79 6 0 38 -13 72 -29 114
-54 306 -109 417 -121 36 -4 71 -10 78 -15 16 -9 7 -81 -15 -123 -7 -15 -14
-37 -14 -49 0 -12 -4 -24 -9 -28 -5 -3 -12 -19 -16 -36 l-7 -30 -66 6 c-37 4
-89 13 -116 21 -27 8 -62 14 -77 14 -15 0 -30 4 -33 9 -4 5 -25 12 -49 16 -23
4 -46 10 -52 14 -5 4 -37 17 -70 30 -33 12 -109 47 -170 77 -106 52 -140 63
-147 46 -9 -23 -284 -194 -403 -250 -38 -19 -84 -41 -102 -49 -18 -9 -40 -13
-49 -9 -15 6 -16 20 -10 149 4 78 7 162 6 185 -1 52 7 64 68 94 211 101 478
361 596 578 10 19 24 38 30 42 8 5 8 10 0 18 -15 15 -388 9 -429 -7 -16 -7
-65 -22 -107 -35 -43 -12 -78 -26 -78 -30 0 -4 -7 -8 -16 -8 -9 0 -42 -16 -74
-35 -32 -19 -65 -35 -74 -35 -18 0 -91 37 -114 58 -7 6 -19 12 -27 12 -7 0
-26 6 -42 14 -34 18 -93 39 -153 57 -59 17 -429 24 -444 9 -8 -8 -8 -13 0 -18
6 -4 17 -18 24 -32 28 -57 128 -196 185 -258 118 -129 279 -257 410 -327 28
-14 54 -30 59 -35 6 -6 11 -45 12 -87 1 -43 5 -129 9 -190 9 -150 15 -148
-165 -60 -126 62 -390 226 -398 248 -4 11 -59 12 -64 2 -4 -11 -256 -133 -272
-133 -5 0 -22 -6 -39 -14 -35 -15 -95 -32 -172 -48 -27 -5 -54 -13 -60 -18 -5
-4 -47 -11 -92 -14 l-81 -7 -7 30 c-4 17 -11 33 -16 36 -5 4 -9 16 -9 28 0 12
-7 34 -14 49 -8 16 -18 48 -21 73 -7 42 -6 45 20 55 14 5 46 10 69 10 24 0 61
6 82 14 22 7 60 16 86 20 26 4 50 11 53 17 4 5 15 9 25 9 22 0 189 67 205 81
5 5 17 9 26 9 37 0 28 23 -32 88 -34 37 -82 94 -106 127 -25 33 -48 62 -52 65
-8 7 -70 100 -122 185 -48 79 -139 259 -139 275 0 5 -4 18 -10 28 -17 32 -38
87 -60 157 -12 39 -26 78 -31 87 -5 10 -9 26 -9 37 0 10 -6 41 -14 67 -8 27
-21 85 -30 129 -14 73 -20 123 -31 285 -3 30 -7 70 -10 88 l-6 32 -74 0 c-40
0 -80 3 -89 6 -14 5 -16 37 -16 255 l0 249 838 -2 837 -3 0 -175z m-123 -224
c18 -7 58 -21 88 -31 30 -9 69 -24 85 -32 28 -14 34 -13 98 16 38 17 79 31 90
31 12 1 33 7 47 15 40 23 298 20 375 -4 l59 -19 13 -63 c8 -35 18 -102 23
-149 5 -47 14 -103 19 -125 6 -22 11 -62 11 -90 0 -27 7 -72 15 -99 8 -27 15
-74 15 -105 0 -31 7 -78 15 -105 8 -27 15 -70 15 -95 0 -25 4 -61 9 -78 7 -23
6 -35 -2 -40 -7 -4 -84 -6 -173 -4 -127 2 -171 -1 -208 -13 -26 -9 -61 -16
-79 -16 -18 0 -45 -7 -61 -15 -15 -8 -38 -15 -50 -15 -12 0 -31 -7 -42 -15
-10 -8 -28 -15 -39 -15 -11 0 -29 -6 -40 -13 -56 -37 -80 -40 -136 -14 -102
46 -130 57 -148 57 -10 0 -32 7 -47 15 -16 8 -45 15 -65 15 -20 0 -56 7 -80
16 -35 12 -78 15 -204 12 -88 -1 -165 0 -171 4 -11 7 -9 26 16 178 6 36 15
103 20 150 5 47 13 98 19 113 6 16 11 54 11 86 0 32 7 80 15 107 8 27 15 74
15 105 0 31 5 70 11 87 6 17 14 52 17 78 l7 47 60 18 c78 23 327 26 377 5z
m-987 -1502 c39 -53 81 -110 95 -128 36 -43 52 -84 41 -103 -13 -24 -148 -70
-175 -60 -7 3 -16 18 -19 34 -3 15 -10 46 -16 67 -18 72 -16 286 3 286 1 0 33
-43 71 -96z m2462 -36 c-5 -156 -24 -251 -51 -256 -9 -2 -49 7 -88 19 -80 26
-100 50 -80 95 12 25 147 209 185 252 11 12 25 22 30 22 5 0 7 -57 4 -132z
m-1977 -536 c1 -15 7 -38 15 -52 8 -14 14 -52 15 -85 0 -34 7 -87 15 -118 8
-32 15 -67 15 -77 0 -17 19 -63 51 -123 15 -29 1 -38 -29 -20 -62 40 -161 168
-217 281 -59 122 -62 136 -26 161 16 12 34 21 39 21 6 0 32 11 58 24 55 28 64
26 64 -12z m1488 8 c80 -35 97 -47 100 -74 4 -29 -30 -106 -91 -210 -51 -86
-182 -225 -198 -209 -8 8 -3 29 20 77 17 36 31 76 31 89 1 12 7 49 15 82 8 33
15 81 15 107 0 60 30 158 48 158 7 0 34 -9 60 -20z m-198 -173 c0 -98 -4 -139
-15 -161 -8 -15 -15 -34 -15 -41 0 -22 -62 -128 -104 -177 -86 -101 -206 -170
-354 -203 -74 -17 -92 -17 -150 -6 -37 7 -80 15 -97 18 -16 2 -44 11 -62 19
-17 8 -35 14 -41 14 -5 0 -37 18 -71 41 -107 72 -180 168 -245 322 -20 47 -24
307 -5 307 7 0 43 -20 80 -45 38 -25 80 -50 94 -55 24 -9 25 -13 25 -101 0
-91 5 -112 52 -204 35 -69 89 -120 173 -160 32 -16 61 -20 150 -20 101 0 114
3 164 28 72 38 135 106 173 186 28 57 32 79 36 168 l4 101 30 13 c17 7 59 32
95 55 37 24 70 41 75 38 4 -3 8 -65 8 -137z m-1530 23 c0 -8 14 -39 30 -69 33
-60 38 -91 15 -91 -8 0 -15 3 -15 8 0 4 -17 25 -38 48 -107 118 -112 128 -70
154 l33 20 22 -27 c13 -16 23 -35 23 -43z m1990 22 c0 -9 -16 -35 -35 -57 -19
-22 -49 -57 -67 -77 -32 -37 -58 -49 -58 -26 0 6 14 40 30 75 17 34 30 69 30
76 0 7 9 23 20 35 20 21 23 21 50 7 17 -9 30 -23 30 -33z"/>
</g>
</svg>
